Coordinates
version=1
nRows=19
nColumns=24
inDegrees=yes

Units are S.I. units (second, meters, Newtons, ...)
Angles are in degrees.

endheader
time	pelvis_tilt	pelvis_list	pelvis_rotation	pelvis_tx	pelvis_ty	pelvis_tz	hip_flexion_r	hip_adduction_r	hip_rotation_r	knee_angle_r	ankle_angle_r	subtalar_angle_r	mtp_angle_r	hip_flexion_l	hip_adduction_l	hip_rotation_l	knee_angle_l	ankle_angle_l	subtalar_angle_l	mtp_angle_l	lumbar_extension	lumbar_bending	lumbar_rotation
      3.70500000	    -14.70423344	      0.19361879	      1.37778241	     -0.32203313	     -0.02792242	     -0.03093859	     38.50096247	     -0.23146297	     -6.64602890	     -8.80902301	     -8.83199630	      4.03479768	     14.27598881	     -0.97262004	      1.94988518	     -5.62888882	    -13.00571831	      2.78813365	     17.44960327	     14.48857599	     12.27714899	     -0.98631221	     -7.25029925
      3.71000000	    -14.70540122	      0.14206599	      1.49252723	     -0.31542582	     -0.02866954	     -0.03074702	     38.56163414	     -0.19076045	     -6.67048325	     -9.60269805	     -8.70106862	      3.95529122	     14.20018139	     -1.09834326	      1.77908838	     -5.72511837	    -13.46870142	      2.56177518	     17.93536459	     14.83799733	     12.35816474	     -0.89643949	     -7.32558568
      3.71500000	    -14.68378884	      0.09997342	      1.60846151	     -0.30881189	     -0.02934806	     -0.03053031	     38.56515163	     -0.15427886	     -6.66999385	    -10.34372688	     -8.62577951	      3.95606070	     14.16741231	     -1.24034574	      1.61229369	     -5.77829251	    -13.94184488	      2.29213876	     18.41501048	     15.16737625	     12.41200393	     -0.82447929	     -7.42284404
      3.72000000	    -14.67052745	      0.01394828	      1.73290602	     -0.30209685	     -0.02997940	     -0.03033598	     38.52970464	     -0.08094732	     -6.67682467	    -11.00478965	     -8.62831794	      4.02152752	     14.17065936	     -1.36112529	      1.38773655	     -5.87716804	    -14.43142610	      1.98528022	     18.94949403	     15.55891719	     12.48866709	     -0.70256255	     -7.50090059
      3.72500000	    -14.66111257	     -0.08748630	      1.86680201	     -0.29534888	     -0.03054716	     -0.03013016	     38.45646735	      0.00665232	     -6.64829487	    -11.57421025	     -8.74241682	      4.11553444	     14.22696504	     -1.45711430	      1.13581367	     -5.97070743	    -14.95222448	      1.63595854	     19.52324065	     15.95303777	     12.57160786	     -0.57110853	     -7.61698934
      3.73000000	    -14.65739693	     -0.17803304	      2.04572985	     -0.28864081	     -0.03104039	     -0.02993877	     38.36041638	      0.06281982	     -6.59357979	    -12.06751636	     -8.95871454	      4.19560973	     14.29806324	     -1.51109043	      0.88610990	     -6.02761503	    -15.52295183	      1.24477754	     20.12751238	     16.26418605	     12.65289814	     -0.47108915	     -7.79804075
      3.73500000	    -14.69075573	     -0.38641986	      2.17564606	     -0.28173003	     -0.03148115	     -0.02975485	     38.25145353	      0.25340378	     -6.57030906	    -12.43697703	     -9.37489284	      4.28489462	     14.37885268	     -1.51917923	      0.49685139	     -6.20247030	    -16.11074274	      0.82853213	     20.79621472	     16.67642923	     12.80902885	     -0.22322594	     -7.93256299
      3.74000000	    -14.64852980	     -0.57132129	      2.23503079	     -0.27487216	     -0.03177541	     -0.02938656	     38.04636515	      0.48770866	     -6.38312801	    -12.71839833	     -9.97007710	      4.18529216	     14.59426822	     -1.60986588	      0.10413880	     -6.50463298	    -16.66009911	      0.22583448	     21.56236271	     17.45251925	     12.87146071	      0.00967189	     -7.96229515
      3.74500000	    -14.66575967	     -0.79534071	      2.39663096	     -0.26806719	     -0.03201426	     -0.02916408	     37.88491654	      0.68548620	     -6.26823149	    -12.94617456	    -10.64339972	      4.02332114	     14.71768676	     -1.56145356	     -0.33341825	     -6.70593177	    -17.32648336	     -0.37232413	     22.29324698	     18.02228663	     12.99324692	      0.25384028	     -8.12055772
      3.75000000	    -14.71340842	     -1.05249802	      2.55989369	     -0.26122988	     -0.03217113	     -0.02894754	     37.75057718	      0.90998733	     -6.16997709	    -13.15087154	    -11.39699022	      3.74910673	     14.67579659	     -1.45740329	     -0.81459335	     -6.86360272	    -18.02733059	     -1.00385242	     23.07117225	     18.46535233	     13.15679933	      0.52889405	     -8.30834388
      3.75500000	    -14.78490061	     -1.37156341	      2.76149267	     -0.25434772	     -0.03225718	     -0.02882579	     37.62454116	      1.16246198	     -6.12553437	    -13.33058250	    -12.13941529	      3.33775919	     14.51399577	     -1.26319341	     -1.36855015	     -7.04815387	    -18.83179407	     -1.68710841	     23.76623862	     18.82077292	     13.36049879	      0.86383750	     -8.50993082
      3.76000000	    -14.76442560	     -1.63972277	      2.78775637	     -0.24749474	     -0.03219685	     -0.02833516	     37.42462049	      1.51633696	     -5.74286489	    -13.54208895	    -12.91782067	      2.55384363	     14.14852833	     -1.20282867	     -1.91652828	     -7.54769708	    -19.55515986	     -2.60101554	     24.67858853	     19.59049526	     13.45122116	      1.18137945	     -8.52524858
      3.76500000	    -14.79382508	     -1.95112722	      2.90688511	     -0.24064103	     -0.03209320	     -0.02802498	     37.27840840	      1.83807409	     -5.48994161	    -13.79207887	    -13.56614609	      1.73879580	     13.55915294	     -1.01439622	     -2.51086413	     -7.92413128	    -20.38435016	     -3.56473528	     25.49653244	     20.24587454	     13.60426083	      1.52176177	     -8.65374118
      3.77000000	    -14.83094255	     -2.26824308	      3.00618216	     -0.23373156	     -0.03192956	     -0.02769242	     37.14642814	      2.18183008	     -5.21105704	    -14.08549517	    -14.08797335	      0.81239258	     12.78926418	     -0.78849433	     -3.12744133	     -8.35224308	    -21.25959131	     -4.63002324	     26.31887836	     20.85164414	     13.77697488	      1.87521180	     -8.75305563
      3.77500000	    -14.82542482	     -2.54633667	      3.10555640	     -0.22693121	     -0.03167342	     -0.02730812	     36.98689735	      2.50220573	     -4.82896403	    -14.44996476	    -14.37933774	     -0.12224209	     11.63673828	     -0.56009690	     -3.72997486	     -8.85037196	    -22.17854665	     -5.88043340	     27.14651329	     21.65406263	     13.88437864	      2.18210303	     -8.86422672
      3.78000000	    -14.87402491	     -2.86664126	      3.17783002	     -0.22001482	     -0.03143752	     -0.02694296	     36.88945754	      2.86527389	     -4.58672039	    -14.83257718	    -14.60073823	     -1.04985083	     10.72777783	     -0.23333539	     -4.39126519	     -9.40161588	    -23.18516167	     -7.16867160	     27.93818137	     22.24999294	     14.07396824	      2.54761746	     -8.91047352
      3.78500000	    -14.85938899	     -3.10186795	      3.25230164	     -0.21325702	     -0.03108992	     -0.02649717	     36.73472974	      3.16155742	     -4.21937543	    -15.26869000	    -14.54914043	     -1.82089427	      9.54613924	      0.06895571	     -4.99389972	    -10.00161752	    -24.20347644	     -8.74269340	     28.72907774	     23.18561843	     14.16513433	      2.81572709	     -8.98247040
      3.79000000	    -14.88004643	     -3.35414929	      3.32049112	     -0.20647506	     -0.03075614	     -0.02606927	     36.61886545	      3.46027394	     -4.00169923	    -15.71117186	    -14.39235303	     -2.41467907	      8.65720631	      0.46256092	     -5.63378337	    -10.62830546	    -25.30651693	    -10.40942207	     29.47112018	     24.02157512	     14.30201068	      3.10532958	     -9.03481467
      3.79500000	    -14.90847498	     -3.60846917	      3.35866912	     -0.19975325	     -0.03041189	     -0.02560997	     36.51010135	      3.76820719	     -3.85751644	    -16.14134849	    -14.17741662	     -2.85121487	      8.07539217	      0.91577535	     -6.29855195	    -11.30376853	    -26.48121055	    -12.21182789	     30.12269588	     24.85934117	     14.43878393	      3.40845633	     -9.03617892
